<svg width="143" height="48" viewBox="0 0 143 48" fill="none" xmlns="http://www.w3.org/2000/svg">
<path d="M39.554 7.90909H42.6023L49.7699 25.4162H50.017L57.1847 7.90909H60.233V29H57.8438V12.9759H57.6378L51.0469 29H48.7401L42.1491 12.9759H41.9432V29H39.554V7.90909ZM70.2217 29.3409C68.645 29.3409 67.2849 28.9929 66.1415 28.2969C65.0051 27.5938 64.128 26.6136 63.5101 25.3565C62.8993 24.0923 62.5939 22.6222 62.5939 20.946C62.5939 19.2699 62.8993 17.7926 63.5101 16.5142C64.128 15.2287 64.9874 14.2273 66.0882 13.5099C67.1962 12.7855 68.4888 12.4233 69.9661 12.4233C70.8183 12.4233 71.6599 12.5653 72.4909 12.8494C73.3219 13.1335 74.0783 13.5952 74.7601 14.2344C75.4419 14.8665 75.9852 15.7045 76.3901 16.7486C76.7949 17.7926 76.9973 19.0781 76.9973 20.6051V21.6705H64.3837V19.4972H74.4405C74.4405 18.5739 74.2558 17.75 73.8865 17.0256C73.5243 16.3011 73.0058 15.7294 72.3311 15.3104C71.6635 14.8913 70.8751 14.6818 69.9661 14.6818C68.9646 14.6818 68.0982 14.9304 67.3666 15.4276C66.6422 15.9176 66.0847 16.5568 65.694 17.3452C65.3034 18.1335 65.1081 18.9787 65.1081 19.8807V21.3295C65.1081 22.5653 65.3212 23.6129 65.7473 24.4723C66.1805 25.3246 66.7807 25.9744 67.5477 26.4219C68.3148 26.8622 69.2061 27.0824 70.2217 27.0824C70.8822 27.0824 71.4788 26.9901 72.0115 26.8054C72.5513 26.6136 73.0165 26.3295 73.4071 25.9531C73.7977 25.5696 74.0996 25.0937 74.3126 24.5256L76.7416 25.2074C76.4859 26.0312 76.0563 26.7557 75.4526 27.3807C74.8489 27.9986 74.1031 28.4815 73.2153 28.8295C72.3276 29.1705 71.3297 29.3409 70.2217 29.3409ZM86.4009 29.3409C85.0372 29.3409 83.8334 28.9964 82.7894 28.3075C81.7453 27.6115 80.9286 26.6314 80.3391 25.3672C79.7496 24.0959 79.4548 22.5938 79.4548 20.8608C79.4548 19.142 79.7496 17.6506 80.3391 16.3864C80.9286 15.1222 81.7489 14.1456 82.8 13.4567C83.8511 12.7678 85.0656 12.4233 86.4435 12.4233C87.5088 12.4233 88.3504 12.6009 88.9683 12.956C89.5933 13.304 90.0692 13.7017 90.3959 14.1491C90.7297 14.5895 90.9889 14.9517 91.1736 15.2358H91.3867V7.18182H93.9009V29H91.4719V26.4858H91.1736C90.9889 26.7841 90.7261 27.1605 90.3852 27.6151C90.0443 28.0625 89.5578 28.4638 88.9257 28.8189C88.2936 29.1669 87.452 29.3409 86.4009 29.3409ZM86.7418 27.0824C87.7503 27.0824 88.6026 26.8196 89.2986 26.294C89.9946 25.7614 90.5237 25.0263 90.8859 24.0888C91.2482 23.1442 91.4293 22.054 91.4293 20.8182C91.4293 19.5966 91.2517 18.5277 90.8966 17.6115C90.5415 16.6882 90.0159 15.9709 89.3199 15.4595C88.6239 14.9411 87.7645 14.6818 86.7418 14.6818C85.6764 14.6818 84.7886 14.9553 84.0784 15.5021C83.3753 16.0419 82.8462 16.777 82.4911 17.7074C82.143 18.6307 81.969 19.6676 81.969 20.8182C81.969 21.983 82.1466 23.0412 82.5017 23.9929C82.8639 24.9375 83.3966 25.6903 84.0997 26.2514C84.8099 26.8054 85.6906 27.0824 86.7418 27.0824ZM96.4547 29V12.6364H98.9689V29H96.4547ZM97.7331 9.90909C97.243 9.90909 96.8205 9.74219 96.4653 9.40838C96.1173 9.07457 95.9433 8.6733 95.9433 8.20455C95.9433 7.7358 96.1173 7.33452 96.4653 7.00071C96.8205 6.6669 97.243 6.5 97.7331 6.5C98.2232 6.5 98.6422 6.6669 98.9902 7.00071C99.3453 7.33452 99.5229 7.7358 99.5229 8.20455C99.5229 8.6733 99.3453 9.07457 98.9902 9.40838C98.6422 9.74219 98.2232 9.90909 97.7331 9.90909ZM106.889 29.3835C105.852 29.3835 104.911 29.1882 104.066 28.7976C103.221 28.3999 102.55 27.8281 102.053 27.0824C101.555 26.3295 101.307 25.4205 101.307 24.3551C101.307 23.4176 101.491 22.6577 101.861 22.0753C102.23 21.4858 102.724 21.0241 103.342 20.6903C103.959 20.3565 104.641 20.108 105.387 19.9446C106.14 19.7741 106.896 19.6392 107.656 19.5398C108.651 19.4119 109.457 19.3161 110.075 19.2521C110.7 19.1811 111.154 19.0639 111.438 18.9006C111.729 18.7372 111.875 18.4531 111.875 18.0483V17.9631C111.875 16.9119 111.587 16.0952 111.012 15.5128C110.444 14.9304 109.581 14.6392 108.423 14.6392C107.223 14.6392 106.282 14.902 105.6 15.4276C104.918 15.9531 104.439 16.5142 104.162 17.1108L101.776 16.2585C102.202 15.2642 102.77 14.4901 103.48 13.9361C104.197 13.375 104.979 12.9844 105.824 12.7642C106.676 12.5369 107.514 12.4233 108.338 12.4233C108.864 12.4233 109.467 12.4872 110.149 12.6151C110.838 12.7358 111.502 12.9879 112.141 13.3714C112.788 13.755 113.324 14.3338 113.75 15.108C114.176 15.8821 114.389 16.919 114.389 18.2188V29H111.875V26.7841H111.747C111.577 27.1392 111.293 27.5192 110.895 27.924C110.497 28.3288 109.968 28.6733 109.307 28.9574C108.647 29.2415 107.841 29.3835 106.889 29.3835ZM107.273 27.125C108.267 27.125 109.105 26.9297 109.787 26.5391C110.476 26.1484 110.994 25.6442 111.342 25.0263C111.697 24.4084 111.875 23.7585 111.875 23.0767V20.7756C111.768 20.9034 111.534 21.0206 111.172 21.1271C110.817 21.2266 110.405 21.3153 109.936 21.3935C109.474 21.4645 109.023 21.5284 108.583 21.5852C108.15 21.6349 107.798 21.6776 107.528 21.7131C106.875 21.7983 106.264 21.9368 105.696 22.1286C105.135 22.3132 104.68 22.5937 104.332 22.9702C103.991 23.3395 103.821 23.8437 103.821 24.483C103.821 25.3565 104.144 26.017 104.79 26.4645C105.444 26.9048 106.271 27.125 107.273 27.125ZM116.878 29V12.6364H119.307V15.108H119.478C119.776 14.2983 120.316 13.6413 121.097 13.1371C121.878 12.6328 122.759 12.3807 123.739 12.3807C123.924 12.3807 124.154 12.3842 124.431 12.3913C124.708 12.3984 124.918 12.4091 125.06 12.4233V14.9801C124.975 14.9588 124.779 14.9268 124.474 14.8842C124.176 14.8345 123.86 14.8097 123.526 14.8097C122.73 14.8097 122.02 14.9766 121.395 15.3104C120.777 15.6371 120.287 16.0916 119.925 16.674C119.57 17.2493 119.392 17.9062 119.392 18.6449V29H116.878ZM130.084 23.0341L130.041 19.9233H130.553L137.712 12.6364H140.823L133.195 20.3494H132.982L130.084 23.0341ZM127.74 29V7.18182H130.254V29H127.74ZM138.138 29L131.746 20.9034L133.536 19.1562L141.334 29H138.138Z" fill="#5A5A5A"/>
<path d="M15.9478 3.91655L15.3634 3.33211C14.9728 2.94158 14.3397 2.94158 13.9491 3.33211L0.706511 16.5747C0.315985 16.9653 0.315987 17.5984 0.706511 17.989L1.29096 18.5734C1.68148 18.9639 2.31465 18.9639 2.70517 18.5734L15.9478 5.33077C16.3383 4.94024 16.3383 4.30708 15.9478 3.91655Z" fill="url(#paint0_linear_1714_1271)"/>
<path d="M14.0952 4.03882C14.3604 3.37043 15.2233 3.19208 15.7318 3.70056L16.3472 4.31594C16.6318 4.6005 16.718 5.02792 16.5661 5.40057L8.89558 24.2153C8.62562 24.8775 7.7681 25.0505 7.26247 24.5449L6.79337 24.0758C6.51121 23.7937 6.4238 23.3708 6.57098 22.9999L14.0952 4.03882Z" fill="url(#paint1_linear_1714_1271)"/>
<path d="M18.7854 19.0666L12.8712 13.1524C12.4806 12.7619 11.8475 12.7619 11.457 13.1524L11.1123 13.497C10.7218 13.8876 10.7218 14.5207 11.1123 14.9112L17.0266 20.8254C17.4171 21.216 18.0502 21.216 18.4408 20.8254L18.7854 20.4808C19.1759 20.0903 19.1759 19.4571 18.7854 19.0666Z" fill="#5A5A5A"/>
<path d="M20.4233 10.3669C20.6886 9.69855 21.5515 9.52021 22.0599 10.0287L22.5828 10.5516C22.866 10.8347 22.9529 11.2595 22.8038 11.6311L15.2194 30.532C14.9522 31.1978 14.0915 31.374 13.5842 30.8666L13.1215 30.4039C12.8393 30.1218 12.7519 29.6989 12.8991 29.328L20.4233 10.3669Z" fill="url(#paint2_linear_1714_1271)"/>
<path d="M2.60914 19.038C2.23824 19.1852 1.81535 19.0978 1.53319 18.8156L1.07048 18.3529C0.563171 17.8456 0.73934 16.9849 1.40518 16.7177L20.306 9.13334C20.6777 8.98421 21.1024 9.07116 21.3855 9.3543L21.9847 9.95342V9.95342C22.4571 10.4259 22.2914 11.2276 21.6704 11.474L2.60914 19.038Z" fill="url(#paint3_linear_1714_1271)"/>
<path d="M7.39221 24.6747C6.88658 24.169 7.05964 23.3115 7.7218 23.0415L26.5365 15.371C26.9092 15.2191 27.3366 15.3054 27.6212 15.5899L28.2366 16.2053C28.745 16.7138 28.5667 17.5767 27.8983 17.8419L8.93727 25.3661C8.56637 25.5133 8.14348 25.4259 7.86132 25.1438L7.39221 24.6747Z" fill="url(#paint4_linear_1714_1271)"/>
<path d="M28.6041 16.5728L28.0196 15.9884C27.6291 15.5978 26.9959 15.5978 26.6054 15.9884L13.3628 29.231C12.9722 29.6215 12.9722 30.2547 13.3628 30.6452L13.9472 31.2297C14.3377 31.6202 14.9709 31.6202 15.3614 31.2297L28.6041 17.987C28.9946 17.5965 28.9946 16.9633 28.6041 16.5728Z" fill="url(#paint5_linear_1714_1271)"/>
<defs>
<linearGradient id="paint0_linear_1714_1271" x1="15.6556" y1="3.62433" x2="0.998734" y2="18.2812" gradientUnits="userSpaceOnUse">
<stop stop-color="#5A5A5A"/>
<stop offset="1" stop-color="#ACACAC"/>
</linearGradient>
<linearGradient id="paint1_linear_1714_1271" x1="18.8201" y1="6.78887" x2="4.16328" y2="21.4457" gradientUnits="userSpaceOnUse">
<stop stop-color="#5A5A5A"/>
<stop offset="1" stop-color="#ACACAC"/>
</linearGradient>
<linearGradient id="paint2_linear_1714_1271" x1="25.1483" y1="13.117" x2="10.4914" y2="27.7738" gradientUnits="userSpaceOnUse">
<stop stop-color="#ACACAC"/>
<stop offset="1" stop-color="#5A5A5A"/>
</linearGradient>
<linearGradient id="paint3_linear_1714_1271" x1="18.8201" y1="6.78887" x2="4.16328" y2="21.4457" gradientUnits="userSpaceOnUse">
<stop stop-color="#ACACAC"/>
<stop offset="1" stop-color="#5A5A5A"/>
</linearGradient>
<linearGradient id="paint4_linear_1714_1271" x1="25.1483" y1="13.117" x2="10.4914" y2="27.7738" gradientUnits="userSpaceOnUse">
<stop stop-color="#5A5A5A"/>
<stop offset="1" stop-color="#ACACAC"/>
</linearGradient>
<linearGradient id="paint5_linear_1714_1271" x1="28.3118" y1="16.2806" x2="13.655" y2="30.9374" gradientUnits="userSpaceOnUse">
<stop stop-color="#ACACAC"/>
<stop offset="1" stop-color="#5A5A5A"/>
</linearGradient>
</defs>
</svg>
